<svg xmlns="http://www.w3.org/2000/svg" width="150.4" height="168.5" viewBox="0 0 150.4 168.5"><path fill="#B8DBFB" d="M74.6 165.2l-71.8-36 .5-89.6 71.3 37"/><path fill="#CCE5FC" d="M74.6 165.2l72.9-36.7V39.4l-73 37.3"/><path fill="#DDEEFD" d="M147.5 39.4l-73 37.3-71.3-37L74.8 3.4"/><path fill="none" stroke="#484848" stroke-width="3" d="M75 1.7l73.9 36.8v90.9l-74.3 37.4-73.1-36.6.2-91.4z"/><path fill="#94C9F9" d="M74.5 117.9l-33-16.3.3-41.7 32.7 16.8"/><path fill="#ADD5FA" d="M74.5 117.9l33.3-16.8.1-41.6-33.4 17.1"/><path fill="#C5E2FB" d="M107.9 59.5L74.5 76.7 41.8 59.9l32.8-16.4"/><path opacity=".93" fill="none" stroke="#484848" stroke-width="2" d="M74.7 42.4l34.2 16.7-.2 42.6-34.2 17.2-33.7-17.1.1-42.5z"/></svg>