<svg xmlns="http://www.w3.org/2000/svg" width="150.4" height="168.5" viewBox="0 0 150.4 168.5"><path fill="#B8DBFB" d="M74.8 165.1L3 129.3l.2-89.6 71.6 36.6"/><path fill="#CCE5FC" d="M74.8 165.1l72.3-36.3.1-89.1-72.4 36.5"/><path fill="#DDEEFD" d="M147.2 39.7L74.8 76.2 3.2 39.7l72-36.4"/><path fill="none" stroke="#484848" stroke-width="3" d="M75 1.7l73.9 36.8-.2 91-74.1 37.3-73.1-36.6.2-91.4z"/><g opacity=".8"><path fill="#94C9F9" d="M75 118l-33.2-16.6.1-41.4L75 77"/><path fill="#ADD5FA" d="M75 118l33.4-16.8.1-41.2L75 76.9"/><path fill="#C5E2FB" d="M108.5 60L75 76.9 41.9 60l33.3-16.8"/><path opacity=".93" fill="none" stroke="#484848" stroke-width="2" d="M75.1 42.5l34.1 17.1-.1 42.1-34.2 17.1-33.8-16.9.1-42.3z"/></g></svg>